<svg width="1280" height="700" viewBox="0 0 1280 700" fill="none" xmlns="http://www.w3.org/2000/svg">
<g clip-path="url(#clip0_2102_373)">
<g filter="url(#filter0_f_2102_373)">
<circle cx="940.56" cy="1070.93" r="499.44" fill="#FC4B1A"/>
</g>
<g filter="url(#filter1_f_2102_373)">
<circle cx="499.44" cy="1059.44" r="499.44" fill="#F7B733"/>
</g>
<circle cx="640" cy="3060" r="2500" fill="#18181B"/>
<path fill-rule="evenodd" clip-rule="evenodd" d="M540 80C538.895 80 538 80.8954 538 82V182C538 183.105 538.895 184 540 184C541.105 184 542 183.105 542 182V82C542 80.8954 541.105 80 540 80ZM530 90C530 88.8954 530.895 88 532 88C533.105 88 534 88.8954 534 90V174C534 175.105 533.105 176 532 176C530.895 176 530 175.105 530 174V90ZM436 92C434.895 92 434 92.8954 434 94V170C434 171.105 434.895 172 436 172C437.105 172 438 171.105 438 170V94C438 92.8954 437.105 92 436 92ZM444 100C442.895 100 442 100.895 442 102V162C442 163.105 442.895 164 444 164C445.105 164 446 163.105 446 162V102C446 100.895 445.105 100 444 100ZM450 106C450 104.895 450.895 104 452 104C453.105 104 454 104.895 454 106V158C454 159.105 453.105 160 452 160C450.895 160 450 159.105 450 158V106ZM460 104C458.895 104 458 104.895 458 106V158C458 159.105 458.895 160 460 160C461.105 160 462 159.105 462 158V106C462 104.895 461.105 104 460 104ZM466 114C466 112.895 466.895 112 468 112C469.105 112 470 112.895 470 114V150C470 151.105 469.105 152 468 152C466.895 152 466 151.105 466 150V114ZM476 120C474.895 120 474 120.895 474 122V142C474 143.105 474.895 144 476 144C477.105 144 478 143.105 478 142V122C478 120.895 477.105 120 476 120ZM482 116C482 114.895 482.895 114 484 114C485.105 114 486 114.895 486 116V148C486 149.105 485.105 150 484 150C482.895 150 482 149.105 482 148V116ZM492 116C490.895 116 490 116.895 490 118V146C490 147.105 490.895 148 492 148C493.105 148 494 147.105 494 146V118C494 116.895 493.105 116 492 116ZM498 118C498 116.895 498.895 116 500 116C501.105 116 502 116.895 502 118V146C502 147.105 501.105 148 500 148C498.895 148 498 147.105 498 146V118ZM508 118C506.895 118 506 118.895 506 120V144C506 145.105 506.895 146 508 146C509.105 146 510 145.105 510 144V120C510 118.895 509.105 118 508 118ZM514 106C514 104.895 514.895 104 516 104C517.105 104 518 104.895 518 106V158C518 159.105 517.105 160 516 160C514.895 160 514 159.105 514 158V106ZM524 94C522.895 94 522 94.8954 522 96V168C522 169.105 522.895 170 524 170C525.105 170 526 169.105 526 168V96C526 94.8954 525.105 94 524 94ZM546 96C546 94.8954 546.895 94 548 94C549.105 94 550 94.8954 550 96V168C550 169.105 549.105 170 548 170C546.895 170 546 169.105 546 168V96ZM556 108C554.895 108 554 108.895 554 110V154C554 155.105 554.895 156 556 156C557.105 156 558 155.105 558 154V110C558 108.895 557.105 108 556 108ZM562 128C562 126.895 562.895 126 564 126C565.105 126 566 126.895 566 128V136C566 137.105 565.105 138 564 138C562.895 138 562 137.105 562 136V128ZM572 112C570.895 112 570 112.895 570 114V150C570 151.105 570.895 152 572 152C573.105 152 574 151.105 574 150V114C574 112.895 573.105 112 572 112ZM578 98C578 96.8954 578.895 96 580 96C581.105 96 582 96.8954 582 98V166C582 167.105 581.105 168 580 168C578.895 168 578 167.105 578 166V98ZM588 92C586.895 92 586 92.8954 586 94V170C586 171.105 586.895 172 588 172C589.105 172 590 171.105 590 170V94C590 92.8954 589.105 92 588 92ZM594 106C594 104.895 594.895 104 596 104C597.105 104 598 104.895 598 106V158C598 159.105 597.105 160 596 160C594.895 160 594 159.105 594 158V106ZM604 100C602.895 100 602 100.895 602 102V162C602 163.105 602.895 164 604 164C605.105 164 606 163.105 606 162V102C606 100.895 605.105 100 604 100ZM610 102C610 100.895 610.895 100 612 100C613.105 100 614 100.895 614 102V162C614 163.105 613.105 164 612 164C610.895 164 610 163.105 610 162V102ZM620 112C618.895 112 618 112.895 618 114V150C618 151.105 618.895 152 620 152C621.105 152 622 151.105 622 150V114C622 112.895 621.105 112 620 112ZM626 126C626 124.895 626.895 124 628 124C629.105 124 630 124.895 630 126V138C630 139.105 629.105 140 628 140C626.895 140 626 139.105 626 138V126ZM636 128C634.895 128 634 128.895 634 130V134C634 135.105 634.895 136 636 136C637.105 136 638 135.105 638 134V130C638 128.895 637.105 128 636 128ZM642 124C642 122.895 642.895 122 644 122C645.105 122 646 122.895 646 124V140C646 141.105 645.105 142 644 142C642.895 142 642 141.105 642 140V124ZM652 116C650.895 116 650 116.895 650 118V146C650 147.105 650.895 148 652 148C653.105 148 654 147.105 654 146V118C654 116.895 653.105 116 652 116ZM658 114C658 112.895 658.895 112 660 112C661.105 112 662 112.895 662 114V150C662 151.105 661.105 152 660 152C658.895 152 658 151.105 658 150V114ZM668 116C666.895 116 666 116.895 666 118V146C666 147.105 666.895 148 668 148C669.105 148 670 147.105 670 146V118C670 116.895 669.105 116 668 116ZM674 114C674 112.895 674.895 112 676 112C677.105 112 678 112.895 678 114V150C678 151.105 677.105 152 676 152C674.895 152 674 151.105 674 150V114ZM684 118C682.895 118 682 118.895 682 120V144C682 145.105 682.895 146 684 146C685.105 146 686 145.105 686 144V120C686 118.895 685.105 118 684 118ZM690 106C690 104.895 690.895 104 692 104C693.105 104 694 104.895 694 106V158C694 159.105 693.105 160 692 160C690.895 160 690 159.105 690 158V106ZM700 114C698.895 114 698 114.895 698 116V148C698 149.105 698.895 150 700 150C701.105 150 702 149.105 702 148V116C702 114.895 701.105 114 700 114ZM706 104C706 102.895 706.895 102 708 102C709.105 102 710 102.895 710 104V160C710 161.105 709.105 162 708 162C706.895 162 706 161.105 706 160V104ZM716 106C714.895 106 714 106.895 714 108V156C714 157.105 714.895 158 716 158C717.105 158 718 157.105 718 156V108C718 106.895 717.105 106 716 106ZM722 114C722 112.895 722.895 112 724 112C725.105 112 726 112.895 726 114V150C726 151.105 725.105 152 724 152C722.895 152 722 151.105 722 150V114ZM732 124C730.895 124 730 124.895 730 126V138C730 139.105 730.895 140 732 140C733.105 140 734 139.105 734 138V126C734 124.895 733.105 124 732 124ZM738 130C738 128.895 738.895 128 740 128C741.105 128 742 128.895 742 130V134C742 135.105 741.105 136 740 136C738.895 136 738 135.105 738 134V130ZM748 124C746.895 124 746 124.895 746 126V138C746 139.105 746.895 140 748 140C749.105 140 750 139.105 750 138V126C750 124.895 749.105 124 748 124ZM754 120C754 118.895 754.895 118 756 118C757.105 118 758 118.895 758 120V144C758 145.105 757.105 146 756 146C754.895 146 754 145.105 754 144V120ZM764 114C762.895 114 762 114.895 762 116V148C762 149.105 762.895 150 764 150C765.105 150 766 149.105 766 148V116C766 114.895 765.105 114 764 114ZM770 120C770 118.895 770.895 118 772 118C773.105 118 774 118.895 774 120V144C774 145.105 773.105 146 772 146C770.895 146 770 145.105 770 144V120ZM780 122C778.895 122 778 122.895 778 124V140C778 141.105 778.895 142 780 142C781.105 142 782 141.105 782 140V124C782 122.895 781.105 122 780 122ZM786 122C786 120.895 786.895 120 788 120C789.105 120 790 120.895 790 122V142C790 143.105 789.105 144 788 144C786.895 144 786 143.105 786 142V122ZM796 114C794.895 114 794 114.895 794 116V148C794 149.105 794.895 150 796 150C797.105 150 798 149.105 798 148V116C798 114.895 797.105 114 796 114ZM802 122C802 120.895 802.895 120 804 120C805.105 120 806 120.895 806 122V142C806 143.105 805.105 144 804 144C802.895 144 802 143.105 802 142V122ZM812 114C810.895 114 810 114.895 810 116V148C810 149.105 810.895 150 812 150C813.105 150 814 149.105 814 148V116C814 114.895 813.105 114 812 114ZM818 118C818 116.895 818.895 116 820 116C821.105 116 822 116.895 822 118V146C822 147.105 821.105 148 820 148C818.895 148 818 147.105 818 146V118ZM828 120C826.895 120 826 120.895 826 122V142C826 143.105 826.895 144 828 144C829.105 144 830 143.105 830 142V122C830 120.895 829.105 120 828 120ZM834 126C834 124.895 834.895 124 836 124C837.105 124 838 124.895 838 126V138C838 139.105 837.105 140 836 140C834.895 140 834 139.105 834 138V126ZM844 128C842.895 128 842 128.895 842 130V134C842 135.105 842.895 136 844 136C845.105 136 846 135.105 846 134V130C846 128.895 845.105 128 844 128Z" fill="url(#paint0_linear_2102_373)"/>
<path d="M185.346 253.273H194.437L198.3 258.205L203.368 264.023L211.164 273.636H200.982L195.527 267.114L192.3 262.477L185.346 253.273ZM211.482 246.727C211.482 251.848 210.497 256.189 208.527 259.75C206.558 263.311 203.891 266.015 200.527 267.864C197.179 269.712 193.421 270.636 189.255 270.636C185.073 270.636 181.308 269.705 177.959 267.841C174.611 265.977 171.952 263.273 169.982 259.727C168.027 256.167 167.05 251.833 167.05 246.727C167.05 241.606 168.027 237.265 169.982 233.705C171.952 230.144 174.611 227.439 177.959 225.591C181.308 223.742 185.073 222.818 189.255 222.818C193.421 222.818 197.179 223.742 200.527 225.591C203.891 227.439 206.558 230.144 208.527 233.705C210.497 237.265 211.482 241.606 211.482 246.727ZM199.982 246.727C199.982 243.697 199.55 241.136 198.687 239.045C197.838 236.955 196.611 235.371 195.005 234.295C193.414 233.22 191.497 232.682 189.255 232.682C187.027 232.682 185.111 233.22 183.505 234.295C181.899 235.371 180.664 236.955 179.8 239.045C178.952 241.136 178.527 243.697 178.527 246.727C178.527 249.758 178.952 252.318 179.8 254.409C180.664 256.5 181.899 258.083 183.505 259.159C185.111 260.235 187.027 260.773 189.255 260.773C191.497 260.773 193.414 260.235 195.005 259.159C196.611 258.083 197.838 256.5 198.687 254.409C199.55 252.318 199.982 249.758 199.982 246.727ZM238.075 254.932V235.091H249.166V270H238.575V263.5H238.212C237.439 265.636 236.121 267.333 234.257 268.591C232.409 269.833 230.174 270.455 227.553 270.455C225.174 270.455 223.083 269.909 221.28 268.818C219.477 267.727 218.075 266.205 217.075 264.25C216.075 262.28 215.568 259.977 215.553 257.341V235.091H226.666V255.159C226.682 257.053 227.182 258.545 228.166 259.636C229.151 260.727 230.492 261.273 232.189 261.273C233.295 261.273 234.288 261.03 235.166 260.545C236.06 260.045 236.765 259.326 237.28 258.386C237.81 257.432 238.075 256.28 238.075 254.932ZM269.998 270.659C266.347 270.659 263.195 269.939 260.544 268.5C257.907 267.045 255.877 264.977 254.453 262.295C253.044 259.598 252.339 256.394 252.339 252.682C252.339 249.076 253.051 245.924 254.476 243.227C255.9 240.515 257.907 238.409 260.498 236.909C263.089 235.394 266.142 234.636 269.657 234.636C272.142 234.636 274.415 235.023 276.476 235.795C278.536 236.568 280.317 237.712 281.817 239.227C283.317 240.742 284.483 242.614 285.317 244.841C286.15 247.053 286.567 249.591 286.567 252.455V255.227H256.226V248.773H276.226C276.211 247.591 275.93 246.538 275.385 245.614C274.839 244.689 274.089 243.97 273.135 243.455C272.195 242.924 271.112 242.659 269.885 242.659C268.642 242.659 267.529 242.939 266.544 243.5C265.559 244.045 264.779 244.795 264.203 245.75C263.627 246.689 263.324 247.758 263.294 248.955V255.523C263.294 256.947 263.574 258.197 264.135 259.273C264.695 260.333 265.491 261.159 266.521 261.75C267.551 262.341 268.779 262.636 270.203 262.636C271.188 262.636 272.082 262.5 272.885 262.227C273.688 261.955 274.377 261.553 274.953 261.023C275.529 260.492 275.961 259.841 276.248 259.068L286.453 259.364C286.029 261.652 285.097 263.644 283.657 265.341C282.233 267.023 280.362 268.333 278.044 269.273C275.726 270.197 273.044 270.659 269.998 270.659ZM289.683 270V235.091H300.251V241.5H300.637C301.365 239.379 302.592 237.705 304.319 236.477C306.046 235.25 308.107 234.636 310.501 234.636C312.925 234.636 315.001 235.258 316.728 236.5C318.455 237.742 319.554 239.409 320.024 241.5H320.387C321.039 239.424 322.312 237.765 324.205 236.523C326.099 235.265 328.334 234.636 330.91 234.636C334.213 234.636 336.895 235.697 338.955 237.818C341.016 239.924 342.046 242.818 342.046 246.5V270H330.933V249.045C330.933 247.303 330.486 245.977 329.592 245.068C328.698 244.144 327.539 243.682 326.115 243.682C324.584 243.682 323.38 244.182 322.501 245.182C321.637 246.167 321.205 247.492 321.205 249.159V270H310.524V248.932C310.524 247.311 310.084 246.03 309.205 245.091C308.327 244.152 307.168 243.682 305.728 243.682C304.758 243.682 303.902 243.917 303.16 244.386C302.418 244.841 301.834 245.492 301.41 246.341C301.001 247.189 300.796 248.189 300.796 249.341V270H289.683ZM373.858 270.659C370.176 270.659 367.017 269.902 364.381 268.386C361.76 266.871 359.745 264.765 358.335 262.068C356.926 259.356 356.222 256.22 356.222 252.659C356.222 249.083 356.926 245.947 358.335 243.25C359.76 240.538 361.782 238.424 364.404 236.909C367.04 235.394 370.184 234.636 373.835 234.636C377.063 234.636 379.873 235.22 382.267 236.386C384.676 237.553 386.555 239.205 387.904 241.341C389.267 243.462 389.987 245.955 390.063 248.818H379.676C379.464 247.03 378.858 245.629 377.858 244.614C376.873 243.598 375.585 243.091 373.995 243.091C372.707 243.091 371.578 243.455 370.608 244.182C369.638 244.894 368.881 245.955 368.335 247.364C367.805 248.758 367.54 250.485 367.54 252.545C367.54 254.606 367.805 256.348 368.335 257.773C368.881 259.182 369.638 260.25 370.608 260.977C371.578 261.689 372.707 262.045 373.995 262.045C375.025 262.045 375.934 261.826 376.722 261.386C377.525 260.947 378.184 260.303 378.699 259.455C379.214 258.591 379.54 257.545 379.676 256.318H390.063C389.957 259.197 389.237 261.712 387.904 263.864C386.585 266.015 384.729 267.689 382.335 268.886C379.957 270.068 377.131 270.659 373.858 270.659ZM403.031 270.591C400.804 270.591 398.827 270.22 397.099 269.477C395.387 268.72 394.031 267.583 393.031 266.068C392.046 264.538 391.554 262.621 391.554 260.318C391.554 258.379 391.895 256.742 392.577 255.409C393.258 254.076 394.198 252.992 395.395 252.159C396.592 251.326 397.971 250.697 399.531 250.273C401.092 249.833 402.758 249.538 404.531 249.386C406.516 249.205 408.114 249.015 409.327 248.818C410.539 248.606 411.417 248.311 411.963 247.932C412.524 247.538 412.804 246.985 412.804 246.273V246.159C412.804 244.992 412.402 244.091 411.599 243.455C410.796 242.818 409.713 242.5 408.349 242.5C406.88 242.5 405.698 242.818 404.804 243.455C403.91 244.091 403.342 244.97 403.099 246.091L392.849 245.727C393.152 243.606 393.933 241.712 395.19 240.045C396.463 238.364 398.205 237.045 400.417 236.091C402.645 235.121 405.319 234.636 408.44 234.636C410.667 234.636 412.721 234.902 414.599 235.432C416.478 235.947 418.114 236.705 419.508 237.705C420.902 238.689 421.978 239.902 422.736 241.341C423.508 242.78 423.895 244.424 423.895 246.273V270H413.44V265.136H413.167C412.546 266.318 411.751 267.318 410.781 268.136C409.827 268.955 408.698 269.568 407.395 269.977C406.107 270.386 404.652 270.591 403.031 270.591ZM406.463 263.318C407.66 263.318 408.736 263.076 409.69 262.591C410.66 262.106 411.433 261.439 412.008 260.591C412.584 259.727 412.872 258.727 412.872 257.591V254.273C412.554 254.439 412.167 254.591 411.713 254.727C411.274 254.864 410.789 254.992 410.258 255.114C409.728 255.235 409.183 255.341 408.622 255.432C408.061 255.523 407.524 255.606 407.008 255.682C405.963 255.848 405.069 256.106 404.327 256.455C403.599 256.803 403.039 257.258 402.645 257.818C402.266 258.364 402.077 259.015 402.077 259.773C402.077 260.924 402.486 261.803 403.304 262.409C404.137 263.015 405.19 263.318 406.463 263.318ZM439.244 250.091V270H428.13V235.091H438.698V241.5H439.085C439.857 239.364 441.176 237.689 443.039 236.477C444.903 235.25 447.123 234.636 449.698 234.636C452.153 234.636 454.282 235.189 456.085 236.295C457.903 237.386 459.312 238.917 460.312 240.886C461.327 242.841 461.827 245.129 461.812 247.75V270H450.698V249.932C450.714 247.992 450.221 246.477 449.221 245.386C448.236 244.295 446.865 243.75 445.107 243.75C443.941 243.75 442.911 244.008 442.017 244.523C441.138 245.023 440.456 245.742 439.971 246.682C439.501 247.621 439.259 248.758 439.244 250.091ZM485.837 235.091V243.273H463.815V235.091H485.837ZM468.428 226.727H479.542V259.023C479.542 259.705 479.648 260.258 479.86 260.682C480.087 261.091 480.413 261.386 480.837 261.568C481.262 261.735 481.769 261.818 482.36 261.818C482.784 261.818 483.231 261.78 483.701 261.705C484.186 261.614 484.549 261.538 484.792 261.477L486.474 269.5C485.943 269.652 485.193 269.841 484.224 270.068C483.269 270.295 482.125 270.439 480.792 270.5C478.186 270.621 475.951 270.318 474.087 269.591C472.239 268.848 470.822 267.697 469.837 266.136C468.868 264.576 468.398 262.614 468.428 260.25V226.727ZM498.789 270.591C496.561 270.591 494.584 270.22 492.857 269.477C491.145 268.72 489.789 267.583 488.789 266.068C487.804 264.538 487.311 262.621 487.311 260.318C487.311 258.379 487.652 256.742 488.334 255.409C489.016 254.076 489.955 252.992 491.152 252.159C492.349 251.326 493.728 250.697 495.289 250.273C496.849 249.833 498.516 249.538 500.289 249.386C502.273 249.205 503.872 249.015 505.084 248.818C506.296 248.606 507.175 248.311 507.72 247.932C508.281 247.538 508.561 246.985 508.561 246.273V246.159C508.561 244.992 508.16 244.091 507.357 243.455C506.554 242.818 505.47 242.5 504.107 242.5C502.637 242.5 501.455 242.818 500.561 243.455C499.667 244.091 499.099 244.97 498.857 246.091L488.607 245.727C488.91 243.606 489.69 241.712 490.948 240.045C492.22 238.364 493.963 237.045 496.175 236.091C498.402 235.121 501.077 234.636 504.198 234.636C506.425 234.636 508.478 234.902 510.357 235.432C512.236 235.947 513.872 236.705 515.266 237.705C516.66 238.689 517.736 239.902 518.493 241.341C519.266 242.78 519.652 244.424 519.652 246.273V270H509.198V265.136H508.925C508.304 266.318 507.508 267.318 506.539 268.136C505.584 268.955 504.455 269.568 503.152 269.977C501.864 270.386 500.41 270.591 498.789 270.591ZM502.22 263.318C503.417 263.318 504.493 263.076 505.448 262.591C506.417 262.106 507.19 261.439 507.766 260.591C508.342 259.727 508.63 258.727 508.63 257.591V254.273C508.311 254.439 507.925 254.591 507.47 254.727C507.031 254.864 506.546 254.992 506.016 255.114C505.486 255.235 504.94 255.341 504.38 255.432C503.819 255.523 503.281 255.606 502.766 255.682C501.72 255.848 500.827 256.106 500.084 256.455C499.357 256.803 498.796 257.258 498.402 257.818C498.023 258.364 497.834 259.015 497.834 259.773C497.834 260.924 498.243 261.803 499.061 262.409C499.895 263.015 500.948 263.318 502.22 263.318ZM565.555 245.75L555.35 246.023C555.244 245.295 554.957 244.652 554.487 244.091C554.017 243.515 553.403 243.068 552.646 242.75C551.903 242.417 551.04 242.25 550.055 242.25C548.767 242.25 547.669 242.508 546.76 243.023C545.866 243.538 545.426 244.235 545.441 245.114C545.426 245.795 545.699 246.386 546.26 246.886C546.835 247.386 547.858 247.788 549.328 248.091L556.055 249.364C559.54 250.03 562.131 251.136 563.828 252.682C565.54 254.227 566.403 256.273 566.419 258.818C566.403 261.212 565.691 263.295 564.282 265.068C562.888 266.841 560.979 268.22 558.555 269.205C556.131 270.174 553.358 270.659 550.237 270.659C545.252 270.659 541.32 269.636 538.441 267.591C535.578 265.53 533.941 262.773 533.532 259.318L544.51 259.045C544.752 260.318 545.381 261.288 546.396 261.955C547.411 262.621 548.707 262.955 550.282 262.955C551.707 262.955 552.866 262.689 553.76 262.159C554.653 261.629 555.108 260.924 555.123 260.045C555.108 259.258 554.76 258.629 554.078 258.159C553.396 257.674 552.328 257.295 550.873 257.023L544.782 255.864C541.282 255.227 538.676 254.053 536.964 252.341C535.252 250.614 534.403 248.417 534.419 245.75C534.403 243.417 535.025 241.424 536.282 239.773C537.54 238.106 539.328 236.833 541.646 235.955C543.964 235.076 546.699 234.636 549.85 234.636C554.578 234.636 558.305 235.629 561.032 237.614C563.76 239.583 565.267 242.295 565.555 245.75ZM585.648 270.659C581.997 270.659 578.845 269.939 576.194 268.5C573.557 267.045 571.527 264.977 570.103 262.295C568.694 259.598 567.989 256.394 567.989 252.682C567.989 249.076 568.701 245.924 570.126 243.227C571.55 240.515 573.557 238.409 576.148 236.909C578.739 235.394 581.792 234.636 585.307 234.636C587.792 234.636 590.065 235.023 592.126 235.795C594.186 236.568 595.967 237.712 597.467 239.227C598.967 240.742 600.133 242.614 600.967 244.841C601.8 247.053 602.217 249.591 602.217 252.455V255.227H571.876V248.773H591.876C591.861 247.591 591.58 246.538 591.035 245.614C590.489 244.689 589.739 243.97 588.785 243.455C587.845 242.924 586.762 242.659 585.535 242.659C584.292 242.659 583.179 242.939 582.194 243.5C581.209 244.045 580.429 244.795 579.853 245.75C579.277 246.689 578.974 247.758 578.944 248.955V255.523C578.944 256.947 579.224 258.197 579.785 259.273C580.345 260.333 581.141 261.159 582.171 261.75C583.201 262.341 584.429 262.636 585.853 262.636C586.838 262.636 587.732 262.5 588.535 262.227C589.338 261.955 590.027 261.553 590.603 261.023C591.179 260.492 591.611 259.841 591.898 259.068L602.103 259.364C601.679 261.652 600.747 263.644 599.307 265.341C597.883 267.023 596.012 268.333 593.694 269.273C591.376 270.197 588.694 270.659 585.648 270.659ZM627.855 254.932V235.091H638.946V270H628.355V263.5H627.992C627.219 265.636 625.901 267.333 624.037 268.591C622.189 269.833 619.954 270.455 617.333 270.455C614.954 270.455 612.863 269.909 611.06 268.818C609.257 267.727 607.855 266.205 606.855 264.25C605.855 262.28 605.348 259.977 605.333 257.341V235.091H616.446V255.159C616.462 257.053 616.962 258.545 617.946 259.636C618.931 260.727 620.272 261.273 621.969 261.273C623.075 261.273 624.068 261.03 624.946 260.545C625.84 260.045 626.545 259.326 627.06 258.386C627.59 257.432 627.855 256.28 627.855 254.932ZM673.938 245.75L663.733 246.023C663.627 245.295 663.339 244.652 662.869 244.091C662.4 243.515 661.786 243.068 661.028 242.75C660.286 242.417 659.422 242.25 658.438 242.25C657.15 242.25 656.051 242.508 655.142 243.023C654.248 243.538 653.809 244.235 653.824 245.114C653.809 245.795 654.081 246.386 654.642 246.886C655.218 247.386 656.241 247.788 657.71 248.091L664.438 249.364C667.922 250.03 670.513 251.136 672.21 252.682C673.922 254.227 674.786 256.273 674.801 258.818C674.786 261.212 674.074 263.295 672.665 265.068C671.271 266.841 669.362 268.22 666.938 269.205C664.513 270.174 661.741 270.659 658.619 270.659C653.634 270.659 649.703 269.636 646.824 267.591C643.96 265.53 642.324 262.773 641.915 259.318L652.892 259.045C653.134 260.318 653.763 261.288 654.778 261.955C655.794 262.621 657.089 262.955 658.665 262.955C660.089 262.955 661.248 262.689 662.142 262.159C663.036 261.629 663.491 260.924 663.506 260.045C663.491 259.258 663.142 258.629 662.46 258.159C661.778 257.674 660.71 257.295 659.256 257.023L653.165 255.864C649.665 255.227 647.059 254.053 645.347 252.341C643.634 250.614 642.786 248.417 642.801 245.75C642.786 243.417 643.407 241.424 644.665 239.773C645.922 238.106 647.71 236.833 650.028 235.955C652.347 235.076 655.081 234.636 658.233 234.636C662.96 234.636 666.688 235.629 669.415 237.614C672.142 239.583 673.65 242.295 673.938 245.75ZM688.903 270V235.091H699.471V241.5H699.857C700.585 239.379 701.812 237.705 703.539 236.477C705.266 235.25 707.327 234.636 709.721 234.636C712.145 234.636 714.221 235.258 715.948 236.5C717.675 237.742 718.774 239.409 719.244 241.5H719.607C720.259 239.424 721.532 237.765 723.425 236.523C725.319 235.265 727.554 234.636 730.13 234.636C733.433 234.636 736.115 235.697 738.175 237.818C740.236 239.924 741.266 242.818 741.266 246.5V270H730.153V249.045C730.153 247.303 729.706 245.977 728.812 245.068C727.918 244.144 726.759 243.682 725.335 243.682C723.804 243.682 722.6 244.182 721.721 245.182C720.857 246.167 720.425 247.492 720.425 249.159V270H709.744V248.932C709.744 247.311 709.304 246.03 708.425 245.091C707.547 244.152 706.388 243.682 704.948 243.682C703.978 243.682 703.122 243.917 702.38 244.386C701.638 244.841 701.054 245.492 700.63 246.341C700.221 247.189 700.016 248.189 700.016 249.341V270H688.903ZM755.434 270.591C753.206 270.591 751.229 270.22 749.502 269.477C747.79 268.72 746.434 267.583 745.434 266.068C744.449 264.538 743.956 262.621 743.956 260.318C743.956 258.379 744.297 256.742 744.979 255.409C745.661 254.076 746.6 252.992 747.797 252.159C748.994 251.326 750.373 250.697 751.934 250.273C753.494 249.833 755.161 249.538 756.934 249.386C758.918 249.205 760.517 249.015 761.729 248.818C762.941 248.606 763.82 248.311 764.365 247.932C764.926 247.538 765.206 246.985 765.206 246.273V246.159C765.206 244.992 764.805 244.091 764.002 243.455C763.199 242.818 762.115 242.5 760.752 242.5C759.282 242.5 758.1 242.818 757.206 243.455C756.312 244.091 755.744 244.97 755.502 246.091L745.252 245.727C745.555 243.606 746.335 241.712 747.593 240.045C748.865 238.364 750.608 237.045 752.82 236.091C755.047 235.121 757.721 234.636 760.843 234.636C763.07 234.636 765.123 234.902 767.002 235.432C768.881 235.947 770.517 236.705 771.911 237.705C773.305 238.689 774.381 239.902 775.138 241.341C775.911 242.78 776.297 244.424 776.297 246.273V270H765.843V265.136H765.57C764.949 266.318 764.153 267.318 763.184 268.136C762.229 268.955 761.1 269.568 759.797 269.977C758.509 270.386 757.055 270.591 755.434 270.591ZM758.865 263.318C760.062 263.318 761.138 263.076 762.093 262.591C763.062 262.106 763.835 261.439 764.411 260.591C764.987 259.727 765.274 258.727 765.274 257.591V254.273C764.956 254.439 764.57 254.591 764.115 254.727C763.676 254.864 763.191 254.992 762.661 255.114C762.131 255.235 761.585 255.341 761.024 255.432C760.464 255.523 759.926 255.606 759.411 255.682C758.365 255.848 757.471 256.106 756.729 256.455C756.002 256.803 755.441 257.258 755.047 257.818C754.668 258.364 754.479 259.015 754.479 259.773C754.479 260.924 754.888 261.803 755.706 262.409C756.54 263.015 757.593 263.318 758.865 263.318ZM791.646 223.455V270H780.533V223.455H791.646ZM812.478 270.659C808.827 270.659 805.675 269.939 803.024 268.5C800.387 267.045 798.357 264.977 796.933 262.295C795.524 259.598 794.819 256.394 794.819 252.682C794.819 249.076 795.531 245.924 796.956 243.227C798.38 240.515 800.387 238.409 802.978 236.909C805.569 235.394 808.622 234.636 812.137 234.636C814.622 234.636 816.895 235.023 818.956 235.795C821.016 236.568 822.797 237.712 824.297 239.227C825.797 240.742 826.963 242.614 827.797 244.841C828.63 247.053 829.047 249.591 829.047 252.455V255.227H798.706V248.773H818.706C818.69 247.591 818.41 246.538 817.865 245.614C817.319 244.689 816.569 243.97 815.615 243.455C814.675 242.924 813.592 242.659 812.365 242.659C811.122 242.659 810.009 242.939 809.024 243.5C808.039 244.045 807.259 244.795 806.683 245.75C806.107 246.689 805.804 247.758 805.774 248.955V255.523C805.774 256.947 806.054 258.197 806.615 259.273C807.175 260.333 807.971 261.159 809.001 261.75C810.031 262.341 811.259 262.636 812.683 262.636C813.668 262.636 814.562 262.5 815.365 262.227C816.168 261.955 816.857 261.553 817.433 261.023C818.009 260.492 818.44 259.841 818.728 259.068L828.933 259.364C828.509 261.652 827.577 263.644 826.137 265.341C824.713 267.023 822.842 268.333 820.524 269.273C818.206 270.197 815.524 270.659 812.478 270.659ZM862.64 245.75L852.435 246.023C852.329 245.295 852.042 244.652 851.572 244.091C851.102 243.515 850.489 243.068 849.731 242.75C848.989 242.417 848.125 242.25 847.14 242.25C845.852 242.25 844.754 242.508 843.845 243.023C842.951 243.538 842.511 244.235 842.526 245.114C842.511 245.795 842.784 246.386 843.345 246.886C843.92 247.386 844.943 247.788 846.413 248.091L853.14 249.364C856.625 250.03 859.216 251.136 860.913 252.682C862.625 254.227 863.489 256.273 863.504 258.818C863.489 261.212 862.776 263.295 861.367 265.068C859.973 266.841 858.064 268.22 855.64 269.205C853.216 270.174 850.443 270.659 847.322 270.659C842.337 270.659 838.405 269.636 835.526 267.591C832.663 265.53 831.026 262.773 830.617 259.318L841.595 259.045C841.837 260.318 842.466 261.288 843.481 261.955C844.496 262.621 845.792 262.955 847.367 262.955C848.792 262.955 849.951 262.689 850.845 262.159C851.739 261.629 852.193 260.924 852.208 260.045C852.193 259.258 851.845 258.629 851.163 258.159C850.481 257.674 849.413 257.295 847.958 257.023L841.867 255.864C838.367 255.227 835.761 254.053 834.049 252.341C832.337 250.614 831.488 248.417 831.504 245.75C831.488 243.417 832.11 241.424 833.367 239.773C834.625 238.106 836.413 236.833 838.731 235.955C841.049 235.076 843.784 234.636 846.935 234.636C851.663 234.636 855.39 235.629 858.117 237.614C860.845 239.583 862.352 242.295 862.64 245.75ZM893.923 270.659C890.272 270.659 887.12 269.939 884.469 268.5C881.833 267.045 879.802 264.977 878.378 262.295C876.969 259.598 876.264 256.394 876.264 252.682C876.264 249.076 876.976 245.924 878.401 243.227C879.825 240.515 881.833 238.409 884.423 236.909C887.014 235.394 890.067 234.636 893.583 234.636C896.067 234.636 898.34 235.023 900.401 235.795C902.461 236.568 904.242 237.712 905.742 239.227C907.242 240.742 908.408 242.614 909.242 244.841C910.075 247.053 910.492 249.591 910.492 252.455V255.227H880.151V248.773H900.151C900.136 247.591 899.855 246.538 899.31 245.614C898.764 244.689 898.014 243.97 897.06 243.455C896.12 242.924 895.037 242.659 893.81 242.659C892.567 242.659 891.454 242.939 890.469 243.5C889.484 244.045 888.704 244.795 888.128 245.75C887.552 246.689 887.249 247.758 887.219 248.955V255.523C887.219 256.947 887.499 258.197 888.06 259.273C888.62 260.333 889.416 261.159 890.446 261.75C891.476 262.341 892.704 262.636 894.128 262.636C895.113 262.636 896.007 262.5 896.81 262.227C897.613 261.955 898.302 261.553 898.878 261.023C899.454 260.492 899.886 259.841 900.173 259.068L910.378 259.364C909.954 261.652 909.022 263.644 907.583 265.341C906.158 267.023 904.287 268.333 901.969 269.273C899.651 270.197 896.969 270.659 893.923 270.659ZM944.085 245.75L933.88 246.023C933.774 245.295 933.486 244.652 933.017 244.091C932.547 243.515 931.933 243.068 931.176 242.75C930.433 242.417 929.57 242.25 928.585 242.25C927.297 242.25 926.199 242.508 925.29 243.023C924.396 243.538 923.956 244.235 923.971 245.114C923.956 245.795 924.229 246.386 924.79 246.886C925.365 247.386 926.388 247.788 927.858 248.091L934.585 249.364C938.07 250.03 940.661 251.136 942.358 252.682C944.07 254.227 944.933 256.273 944.949 258.818C944.933 261.212 944.221 263.295 942.812 265.068C941.418 266.841 939.509 268.22 937.085 269.205C934.661 270.174 931.888 270.659 928.767 270.659C923.782 270.659 919.85 269.636 916.971 267.591C914.108 265.53 912.471 262.773 912.062 259.318L923.04 259.045C923.282 260.318 923.911 261.288 924.926 261.955C925.941 262.621 927.236 262.955 928.812 262.955C930.236 262.955 931.396 262.689 932.29 262.159C933.183 261.629 933.638 260.924 933.653 260.045C933.638 259.258 933.29 258.629 932.608 258.159C931.926 257.674 930.858 257.295 929.403 257.023L923.312 255.864C919.812 255.227 917.206 254.053 915.494 252.341C913.782 250.614 912.933 248.417 912.949 245.75C912.933 243.417 913.555 241.424 914.812 239.773C916.07 238.106 917.858 236.833 920.176 235.955C922.494 235.076 925.229 234.636 928.38 234.636C933.108 234.636 936.835 235.629 939.562 237.614C942.29 239.583 943.797 242.295 944.085 245.75ZM947.86 283.091V235.091H958.86V241.068H959.201C959.656 240.008 960.3 238.985 961.133 238C961.981 237.015 963.057 236.212 964.36 235.591C965.678 234.955 967.254 234.636 969.088 234.636C971.512 234.636 973.777 235.273 975.883 236.545C978.004 237.818 979.716 239.78 981.019 242.432C982.322 245.083 982.974 248.462 982.974 252.568C982.974 256.523 982.345 259.833 981.088 262.5C979.845 265.167 978.163 267.167 976.042 268.5C973.936 269.833 971.595 270.5 969.019 270.5C967.262 270.5 965.739 270.212 964.451 269.636C963.163 269.061 962.08 268.303 961.201 267.364C960.338 266.424 959.671 265.417 959.201 264.341H958.974V283.091H947.86ZM958.747 252.545C958.747 254.424 958.997 256.061 959.497 257.455C960.012 258.848 960.747 259.932 961.701 260.705C962.671 261.462 963.83 261.841 965.178 261.841C966.542 261.841 967.701 261.462 968.656 260.705C969.61 259.932 970.33 258.848 970.815 257.455C971.315 256.061 971.565 254.424 971.565 252.545C971.565 250.667 971.315 249.038 970.815 247.659C970.33 246.28 969.61 245.212 968.656 244.455C967.716 243.697 966.557 243.318 965.178 243.318C963.815 243.318 962.656 243.689 961.701 244.432C960.747 245.174 960.012 246.235 959.497 247.614C958.997 248.992 958.747 250.636 958.747 252.545ZM996.079 270.591C993.851 270.591 991.874 270.22 990.147 269.477C988.435 268.72 987.079 267.583 986.079 266.068C985.094 264.538 984.601 262.621 984.601 260.318C984.601 258.379 984.942 256.742 985.624 255.409C986.306 254.076 987.245 252.992 988.442 252.159C989.639 251.326 991.018 250.697 992.579 250.273C994.139 249.833 995.806 249.538 997.579 249.386C999.563 249.205 1001.16 249.015 1002.37 248.818C1003.59 248.606 1004.46 248.311 1005.01 247.932C1005.57 247.538 1005.85 246.985 1005.85 246.273V246.159C1005.85 244.992 1005.45 244.091 1004.65 243.455C1003.84 242.818 1002.76 242.5 1001.4 242.5C999.927 242.5 998.745 242.818 997.851 243.455C996.957 244.091 996.389 244.97 996.147 246.091L985.897 245.727C986.2 243.606 986.98 241.712 988.238 240.045C989.51 238.364 991.253 237.045 993.465 236.091C995.692 235.121 998.366 234.636 1001.49 234.636C1003.71 234.636 1005.77 234.902 1007.65 235.432C1009.53 235.947 1011.16 236.705 1012.56 237.705C1013.95 238.689 1015.03 239.902 1015.78 241.341C1016.56 242.78 1016.94 244.424 1016.94 246.273V270H1006.49V265.136H1006.21C1005.59 266.318 1004.8 267.318 1003.83 268.136C1002.87 268.955 1001.75 269.568 1000.44 269.977C999.154 270.386 997.7 270.591 996.079 270.591ZM999.51 263.318C1000.71 263.318 1001.78 263.076 1002.74 262.591C1003.71 262.106 1004.48 261.439 1005.06 260.591C1005.63 259.727 1005.92 258.727 1005.92 257.591V254.273C1005.6 254.439 1005.21 254.591 1004.76 254.727C1004.32 254.864 1003.84 254.992 1003.31 255.114C1002.78 255.235 1002.23 255.341 1001.67 255.432C1001.11 255.523 1000.57 255.606 1000.06 255.682C999.01 255.848 998.116 256.106 997.374 256.455C996.647 256.803 996.086 257.258 995.692 257.818C995.313 258.364 995.124 259.015 995.124 259.773C995.124 260.924 995.533 261.803 996.351 262.409C997.185 263.015 998.238 263.318 999.51 263.318ZM1032.29 250.091V270H1021.18V235.091H1031.75V241.5H1032.13C1032.91 239.364 1034.22 237.689 1036.09 236.477C1037.95 235.25 1040.17 234.636 1042.75 234.636C1045.2 234.636 1047.33 235.189 1049.13 236.295C1050.95 237.386 1052.36 238.917 1053.36 240.886C1054.37 242.841 1054.87 245.129 1054.86 247.75V270H1043.75V249.932C1043.76 247.992 1043.27 246.477 1042.27 245.386C1041.28 244.295 1039.91 243.75 1038.16 243.75C1036.99 243.75 1035.96 244.008 1035.06 244.523C1034.19 245.023 1033.5 245.742 1033.02 246.682C1032.55 247.621 1032.31 248.758 1032.29 250.091ZM1078.88 235.091V243.273H1056.86V235.091H1078.88ZM1061.48 226.727H1072.59V259.023C1072.59 259.705 1072.7 260.258 1072.91 260.682C1073.13 261.091 1073.46 261.386 1073.88 261.568C1074.31 261.735 1074.82 261.818 1075.41 261.818C1075.83 261.818 1076.28 261.78 1076.75 261.705C1077.23 261.614 1077.6 261.538 1077.84 261.477L1079.52 269.5C1078.99 269.652 1078.24 269.841 1077.27 270.068C1076.32 270.295 1075.17 270.439 1073.84 270.5C1071.23 270.621 1069 270.318 1067.13 269.591C1065.29 268.848 1063.87 267.697 1062.88 266.136C1061.92 264.576 1061.45 262.614 1061.48 260.25V226.727ZM1091.84 270.591C1089.61 270.591 1087.63 270.22 1085.9 269.477C1084.19 268.72 1082.84 267.583 1081.84 266.068C1080.85 264.538 1080.36 262.621 1080.36 260.318C1080.36 258.379 1080.7 256.742 1081.38 255.409C1082.06 254.076 1083 252.992 1084.2 252.159C1085.4 251.326 1086.78 250.697 1088.34 250.273C1089.9 249.833 1091.56 249.538 1093.34 249.386C1095.32 249.205 1096.92 249.015 1098.13 248.818C1099.34 248.606 1100.22 248.311 1100.77 247.932C1101.33 247.538 1101.61 246.985 1101.61 246.273V246.159C1101.61 244.992 1101.21 244.091 1100.4 243.455C1099.6 242.818 1098.52 242.5 1097.15 242.5C1095.68 242.5 1094.5 242.818 1093.61 243.455C1092.71 244.091 1092.15 244.97 1091.9 246.091L1081.65 245.727C1081.96 243.606 1082.74 241.712 1084 240.045C1085.27 238.364 1087.01 237.045 1089.22 236.091C1091.45 235.121 1094.12 234.636 1097.25 234.636C1099.47 234.636 1101.53 234.902 1103.4 235.432C1105.28 235.947 1106.92 236.705 1108.31 237.705C1109.71 238.689 1110.78 239.902 1111.54 241.341C1112.31 242.78 1112.7 244.424 1112.7 246.273V270H1102.25V265.136H1101.97C1101.35 266.318 1100.56 267.318 1099.59 268.136C1098.63 268.955 1097.5 269.568 1096.2 269.977C1094.91 270.386 1093.46 270.591 1091.84 270.591ZM1095.27 263.318C1096.46 263.318 1097.54 263.076 1098.5 262.591C1099.46 262.106 1100.24 261.439 1100.81 260.591C1101.39 259.727 1101.68 258.727 1101.68 257.591V254.273C1101.36 254.439 1100.97 254.591 1100.52 254.727C1100.08 254.864 1099.59 254.992 1099.06 255.114C1098.53 255.235 1097.99 255.341 1097.43 255.432C1096.87 255.523 1096.33 255.606 1095.81 255.682C1094.77 255.848 1093.87 256.106 1093.13 256.455C1092.4 256.803 1091.84 257.258 1091.45 257.818C1091.07 258.364 1090.88 259.015 1090.88 259.773C1090.88 260.924 1091.29 261.803 1092.11 262.409C1092.94 263.015 1094 263.318 1095.27 263.318Z" fill="#F4F4F5"/>
<path d="M428.491 324.369H424.059C423.888 323.422 423.571 322.589 423.107 321.869C422.643 321.15 422.075 320.539 421.403 320.037C420.73 319.535 419.978 319.156 419.144 318.901C418.32 318.645 417.444 318.517 416.516 318.517C414.84 318.517 413.339 318.938 412.013 319.781C410.697 320.624 409.656 321.86 408.888 323.489C408.131 325.117 407.752 327.106 407.752 329.455C407.752 331.822 408.131 333.82 408.888 335.449C409.656 337.078 410.702 338.309 412.028 339.142C413.353 339.975 414.845 340.392 416.502 340.392C417.421 340.392 418.292 340.269 419.116 340.023C419.949 339.767 420.702 339.393 421.374 338.901C422.047 338.408 422.615 337.807 423.079 337.097C423.552 336.377 423.879 335.553 424.059 334.625L428.491 334.639C428.254 336.069 427.795 337.385 427.113 338.588C426.441 339.781 425.574 340.813 424.513 341.685C423.462 342.546 422.26 343.214 420.906 343.688C419.551 344.161 418.074 344.398 416.474 344.398C413.955 344.398 411.71 343.801 409.741 342.608C407.771 341.405 406.218 339.687 405.082 337.452C403.955 335.217 403.391 332.551 403.391 329.455C403.391 326.348 403.96 323.683 405.096 321.457C406.232 319.223 407.785 317.509 409.755 316.315C411.725 315.113 413.964 314.511 416.474 314.511C418.017 314.511 419.457 314.734 420.792 315.179C422.137 315.615 423.344 316.259 424.414 317.111C425.484 317.954 426.37 318.986 427.07 320.207C427.771 321.42 428.245 322.807 428.491 324.369ZM439.751 344.483C438.369 344.483 437.119 344.227 436.001 343.716C434.884 343.195 433.999 342.442 433.345 341.457C432.701 340.473 432.379 339.265 432.379 337.835C432.379 336.604 432.616 335.591 433.089 334.795C433.563 334 434.202 333.37 435.007 332.906C435.812 332.442 436.712 332.092 437.706 331.855C438.7 331.618 439.714 331.438 440.746 331.315C442.053 331.164 443.113 331.041 443.928 330.946C444.742 330.842 445.334 330.676 445.703 330.449C446.072 330.222 446.257 329.852 446.257 329.341V329.241C446.257 328.001 445.907 327.04 445.206 326.358C444.515 325.676 443.482 325.335 442.109 325.335C440.679 325.335 439.553 325.652 438.729 326.287C437.914 326.912 437.351 327.608 437.038 328.375L433.047 327.466C433.52 326.14 434.212 325.07 435.121 324.256C436.039 323.432 437.095 322.835 438.288 322.466C439.482 322.087 440.736 321.898 442.053 321.898C442.924 321.898 443.847 322.002 444.822 322.21C445.807 322.409 446.726 322.778 447.578 323.318C448.44 323.858 449.145 324.63 449.695 325.634C450.244 326.628 450.518 327.92 450.518 329.511V344H446.371V341.017H446.2C445.926 341.566 445.514 342.106 444.964 342.636C444.415 343.167 443.71 343.607 442.848 343.957C441.986 344.308 440.954 344.483 439.751 344.483ZM440.675 341.074C441.849 341.074 442.853 340.842 443.686 340.378C444.529 339.914 445.168 339.308 445.604 338.56C446.049 337.802 446.271 336.992 446.271 336.131V333.318C446.12 333.47 445.826 333.612 445.391 333.744C444.964 333.867 444.477 333.976 443.928 334.071C443.378 334.156 442.843 334.237 442.322 334.312C441.802 334.379 441.366 334.436 441.016 334.483C440.192 334.587 439.439 334.762 438.757 335.009C438.085 335.255 437.545 335.61 437.138 336.074C436.74 336.528 436.541 337.134 436.541 337.892C436.541 338.943 436.929 339.739 437.706 340.278C438.482 340.809 439.472 341.074 440.675 341.074ZM460.423 331.045V344H456.175V322.182H460.252V325.733H460.522C461.024 324.578 461.81 323.65 462.88 322.949C463.96 322.248 465.318 321.898 466.957 321.898C468.443 321.898 469.746 322.21 470.863 322.835C471.98 323.451 472.847 324.369 473.462 325.591C474.078 326.812 474.386 328.323 474.386 330.122V344H470.138V330.634C470.138 329.052 469.727 327.816 468.903 326.926C468.079 326.027 466.947 325.577 465.508 325.577C464.523 325.577 463.647 325.79 462.88 326.216C462.122 326.642 461.521 327.267 461.076 328.091C460.64 328.905 460.423 329.89 460.423 331.045ZM490.266 322.182V325.591H478.349V322.182H490.266ZM481.545 316.955H485.792V337.594C485.792 338.418 485.915 339.038 486.161 339.455C486.407 339.862 486.725 340.141 487.113 340.293C487.511 340.435 487.942 340.506 488.406 340.506C488.746 340.506 489.045 340.482 489.3 340.435C489.556 340.387 489.755 340.349 489.897 340.321L490.664 343.83C490.418 343.924 490.067 344.019 489.613 344.114C489.158 344.218 488.59 344.275 487.908 344.284C486.791 344.303 485.749 344.104 484.783 343.688C483.817 343.271 483.036 342.627 482.44 341.756C481.843 340.884 481.545 339.791 481.545 338.474V316.955ZM501.314 344.483C499.931 344.483 498.681 344.227 497.564 343.716C496.446 343.195 495.561 342.442 494.908 341.457C494.264 340.473 493.942 339.265 493.942 337.835C493.942 336.604 494.179 335.591 494.652 334.795C495.125 334 495.765 333.37 496.57 332.906C497.375 332.442 498.274 332.092 499.268 331.855C500.263 331.618 501.276 331.438 502.308 331.315C503.615 331.164 504.676 331.041 505.49 330.946C506.304 330.842 506.896 330.676 507.266 330.449C507.635 330.222 507.82 329.852 507.82 329.341V329.241C507.82 328.001 507.469 327.04 506.768 326.358C506.077 325.676 505.045 325.335 503.672 325.335C502.242 325.335 501.115 325.652 500.291 326.287C499.477 326.912 498.913 327.608 498.601 328.375L494.609 327.466C495.083 326.14 495.774 325.07 496.683 324.256C497.602 323.432 498.658 322.835 499.851 322.466C501.044 322.087 502.299 321.898 503.615 321.898C504.486 321.898 505.41 322.002 506.385 322.21C507.37 322.409 508.288 322.778 509.141 323.318C510.002 323.858 510.708 324.63 511.257 325.634C511.806 326.628 512.081 327.92 512.081 329.511V344H507.933V341.017H507.763C507.488 341.566 507.076 342.106 506.527 342.636C505.978 343.167 505.272 343.607 504.411 343.957C503.549 344.308 502.517 344.483 501.314 344.483ZM502.237 341.074C503.411 341.074 504.415 340.842 505.249 340.378C506.091 339.914 506.731 339.308 507.166 338.56C507.611 337.802 507.834 336.992 507.834 336.131V333.318C507.682 333.47 507.389 333.612 506.953 333.744C506.527 333.867 506.039 333.976 505.49 334.071C504.941 334.156 504.406 334.237 503.885 334.312C503.364 334.379 502.929 334.436 502.578 334.483C501.754 334.587 501.001 334.762 500.32 335.009C499.647 335.255 499.107 335.61 498.7 336.074C498.303 336.528 498.104 337.134 498.104 337.892C498.104 338.943 498.492 339.739 499.268 340.278C500.045 340.809 501.035 341.074 502.237 341.074ZM517.738 344V322.182H521.843V325.648H522.07C522.468 324.473 523.169 323.55 524.173 322.878C525.186 322.196 526.332 321.855 527.61 321.855C527.875 321.855 528.188 321.865 528.548 321.884C528.917 321.902 529.206 321.926 529.414 321.955V326.017C529.244 325.97 528.941 325.918 528.505 325.861C528.069 325.795 527.634 325.761 527.198 325.761C526.194 325.761 525.299 325.974 524.513 326.401C523.737 326.817 523.121 327.4 522.667 328.148C522.212 328.886 521.985 329.729 521.985 330.676V344H517.738ZM547.923 331.045V344H543.675V322.182H547.752V325.733H548.022C548.524 324.578 549.31 323.65 550.38 322.949C551.46 322.248 552.818 321.898 554.457 321.898C555.943 321.898 557.246 322.21 558.363 322.835C559.48 323.451 560.347 324.369 560.962 325.591C561.578 326.812 561.886 328.323 561.886 330.122V344H557.638V330.634C557.638 329.052 557.227 327.816 556.403 326.926C555.579 326.027 554.447 325.577 553.008 325.577C552.023 325.577 551.147 325.79 550.38 326.216C549.622 326.642 549.021 327.267 548.576 328.091C548.14 328.905 547.923 329.89 547.923 331.045ZM581.403 334.952V322.182H585.664V344H581.488V340.222H581.261C580.759 341.386 579.954 342.357 578.846 343.134C577.747 343.901 576.379 344.284 574.741 344.284C573.339 344.284 572.099 343.976 571.019 343.361C569.949 342.736 569.106 341.812 568.491 340.591C567.885 339.369 567.582 337.859 567.582 336.06V322.182H571.829V335.548C571.829 337.035 572.241 338.219 573.065 339.099C573.888 339.98 574.959 340.42 576.275 340.42C577.07 340.42 577.861 340.222 578.647 339.824C579.442 339.426 580.101 338.825 580.621 338.02C581.152 337.215 581.412 336.192 581.403 334.952ZM595.618 331.045V344H591.371V322.182H595.447V325.733H595.717C596.219 324.578 597.005 323.65 598.075 322.949C599.155 322.248 600.514 321.898 602.152 321.898C603.639 321.898 604.941 322.21 606.058 322.835C607.176 323.451 608.042 324.369 608.658 325.591C609.273 326.812 609.581 328.323 609.581 330.122V344H605.334V330.634C605.334 329.052 604.922 327.816 604.098 326.926C603.274 326.027 602.143 325.577 600.703 325.577C599.718 325.577 598.842 325.79 598.075 326.216C597.318 326.642 596.716 327.267 596.271 328.091C595.836 328.905 595.618 329.89 595.618 331.045ZM624.467 344.44C622.356 344.44 620.537 343.962 619.013 343.006C617.498 342.04 616.333 340.709 615.518 339.014C614.704 337.319 614.297 335.378 614.297 333.19C614.297 330.974 614.714 329.019 615.547 327.324C616.38 325.619 617.554 324.289 619.07 323.332C620.585 322.376 622.37 321.898 624.425 321.898C626.082 321.898 627.559 322.205 628.857 322.821C630.154 323.427 631.2 324.279 631.996 325.378C632.801 326.476 633.279 327.759 633.43 329.227H629.297C629.07 328.205 628.549 327.324 627.734 326.585C626.929 325.847 625.85 325.477 624.496 325.477C623.312 325.477 622.275 325.79 621.385 326.415C620.504 327.03 619.818 327.911 619.325 329.057C618.833 330.193 618.587 331.538 618.587 333.091C618.587 334.682 618.828 336.055 619.311 337.21C619.794 338.366 620.476 339.26 621.357 339.895C622.247 340.529 623.293 340.847 624.496 340.847C625.301 340.847 626.03 340.7 626.683 340.406C627.346 340.103 627.9 339.672 628.345 339.114C628.8 338.555 629.117 337.883 629.297 337.097H633.43C633.279 338.508 632.82 339.767 632.053 340.875C631.286 341.983 630.258 342.854 628.97 343.489C627.692 344.123 626.191 344.44 624.467 344.44ZM644.322 344.483C642.939 344.483 641.689 344.227 640.572 343.716C639.454 343.195 638.569 342.442 637.915 341.457C637.272 340.473 636.95 339.265 636.95 337.835C636.95 336.604 637.186 335.591 637.66 334.795C638.133 334 638.772 333.37 639.577 332.906C640.382 332.442 641.282 332.092 642.276 331.855C643.271 331.618 644.284 331.438 645.316 331.315C646.623 331.164 647.683 331.041 648.498 330.946C649.312 330.842 649.904 330.676 650.273 330.449C650.643 330.222 650.827 329.852 650.827 329.341V329.241C650.827 328.001 650.477 327.04 649.776 326.358C649.085 325.676 648.053 325.335 646.68 325.335C645.25 325.335 644.123 325.652 643.299 326.287C642.485 326.912 641.921 327.608 641.609 328.375L637.617 327.466C638.091 326.14 638.782 325.07 639.691 324.256C640.61 323.432 641.665 322.835 642.859 322.466C644.052 322.087 645.307 321.898 646.623 321.898C647.494 321.898 648.417 322.002 649.393 322.21C650.378 322.409 651.296 322.778 652.148 323.318C653.01 323.858 653.716 324.63 654.265 325.634C654.814 326.628 655.089 327.92 655.089 329.511V344H650.941V341.017H650.771C650.496 341.566 650.084 342.106 649.535 342.636C648.986 343.167 648.28 343.607 647.418 343.957C646.557 344.308 645.524 344.483 644.322 344.483ZM645.245 341.074C646.419 341.074 647.423 340.842 648.256 340.378C649.099 339.914 649.738 339.308 650.174 338.56C650.619 337.802 650.842 336.992 650.842 336.131V333.318C650.69 333.47 650.397 333.612 649.961 333.744C649.535 333.867 649.047 333.976 648.498 334.071C647.949 334.156 647.414 334.237 646.893 334.312C646.372 334.379 645.936 334.436 645.586 334.483C644.762 334.587 644.009 334.762 643.327 335.009C642.655 335.255 642.115 335.61 641.708 336.074C641.31 336.528 641.112 337.134 641.112 337.892C641.112 338.943 641.5 339.739 642.276 340.278C643.053 340.809 644.042 341.074 645.245 341.074ZM681.715 322.182V325.591H669.386V322.182H681.715ZM672.766 344V319.653C672.766 318.29 673.065 317.158 673.661 316.259C674.258 315.349 675.049 314.672 676.033 314.227C677.018 313.773 678.088 313.545 679.244 313.545C680.096 313.545 680.825 313.616 681.431 313.759C682.037 313.891 682.487 314.014 682.781 314.128L681.786 317.565C681.587 317.509 681.332 317.442 681.019 317.366C680.707 317.281 680.328 317.239 679.883 317.239C678.851 317.239 678.112 317.494 677.667 318.006C677.231 318.517 677.013 319.256 677.013 320.222V344H672.766ZM694.428 344.44C692.383 344.44 690.598 343.972 689.073 343.034C687.549 342.097 686.365 340.785 685.522 339.099C684.679 337.414 684.258 335.444 684.258 333.19C684.258 330.927 684.679 328.948 685.522 327.253C686.365 325.558 687.549 324.241 689.073 323.304C690.598 322.366 692.383 321.898 694.428 321.898C696.474 321.898 698.259 322.366 699.783 323.304C701.308 324.241 702.492 325.558 703.335 327.253C704.177 328.948 704.599 330.927 704.599 333.19C704.599 335.444 704.177 337.414 703.335 339.099C702.492 340.785 701.308 342.097 699.783 343.034C698.259 343.972 696.474 344.44 694.428 344.44ZM694.442 340.875C695.768 340.875 696.867 340.525 697.738 339.824C698.609 339.123 699.253 338.19 699.67 337.026C700.096 335.861 700.309 334.578 700.309 333.176C700.309 331.784 700.096 330.506 699.67 329.341C699.253 328.167 698.609 327.224 697.738 326.514C696.867 325.804 695.768 325.449 694.442 325.449C693.107 325.449 691.999 325.804 691.119 326.514C690.247 327.224 689.599 328.167 689.173 329.341C688.756 330.506 688.548 331.784 688.548 333.176C688.548 334.578 688.756 335.861 689.173 337.026C689.599 338.19 690.247 339.123 691.119 339.824C691.999 340.525 693.107 340.875 694.442 340.875ZM709.339 344V322.182H713.587V344H709.339ZM711.484 318.815C710.746 318.815 710.111 318.569 709.581 318.077C709.06 317.575 708.8 316.978 708.8 316.287C708.8 315.586 709.06 314.99 709.581 314.497C710.111 313.995 710.746 313.744 711.484 313.744C712.223 313.744 712.853 313.995 713.374 314.497C713.904 314.99 714.169 315.586 714.169 316.287C714.169 316.978 713.904 317.575 713.374 318.077C712.853 318.569 712.223 318.815 711.484 318.815ZM740.071 322.182V325.591H728.153V322.182H740.071ZM731.349 316.955H735.597V337.594C735.597 338.418 735.72 339.038 735.966 339.455C736.212 339.862 736.529 340.141 736.918 340.293C737.315 340.435 737.746 340.506 738.21 340.506C738.551 340.506 738.849 340.482 739.105 340.435C739.361 340.387 739.56 340.349 739.702 340.321L740.469 343.83C740.223 343.924 739.872 344.019 739.418 344.114C738.963 344.218 738.395 344.275 737.713 344.284C736.596 344.303 735.554 344.104 734.588 343.688C733.622 343.271 732.841 342.627 732.244 341.756C731.648 340.884 731.349 339.791 731.349 338.474V316.955ZM751.119 344.483C749.736 344.483 748.486 344.227 747.369 343.716C746.251 343.195 745.366 342.442 744.712 341.457C744.068 340.473 743.746 339.265 743.746 337.835C743.746 336.604 743.983 335.591 744.457 334.795C744.93 334 745.569 333.37 746.374 332.906C747.179 332.442 748.079 332.092 749.073 331.855C750.067 331.618 751.081 331.438 752.113 331.315C753.42 331.164 754.48 331.041 755.295 330.946C756.109 330.842 756.701 330.676 757.07 330.449C757.44 330.222 757.624 329.852 757.624 329.341V329.241C757.624 328.001 757.274 327.04 756.573 326.358C755.882 325.676 754.85 325.335 753.477 325.335C752.047 325.335 750.92 325.652 750.096 326.287C749.281 326.912 748.718 327.608 748.406 328.375L744.414 327.466C744.888 326.14 745.579 325.07 746.488 324.256C747.406 323.432 748.462 322.835 749.656 322.466C750.849 322.087 752.103 321.898 753.42 321.898C754.291 321.898 755.214 322.002 756.19 322.21C757.174 322.409 758.093 322.778 758.945 323.318C759.807 323.858 760.513 324.63 761.062 325.634C761.611 326.628 761.886 327.92 761.886 329.511V344H757.738V341.017H757.567C757.293 341.566 756.881 342.106 756.332 342.636C755.782 343.167 755.077 343.607 754.215 343.957C753.353 344.308 752.321 344.483 751.119 344.483ZM752.042 341.074C753.216 341.074 754.22 340.842 755.053 340.378C755.896 339.914 756.535 339.308 756.971 338.56C757.416 337.802 757.638 336.992 757.638 336.131V333.318C757.487 333.47 757.193 333.612 756.758 333.744C756.332 333.867 755.844 333.976 755.295 334.071C754.746 334.156 754.21 334.237 753.69 334.312C753.169 334.379 752.733 334.436 752.383 334.483C751.559 334.587 750.806 334.762 750.124 335.009C749.452 335.255 748.912 335.61 748.505 336.074C748.107 336.528 747.908 337.134 747.908 337.892C747.908 338.943 748.297 339.739 749.073 340.278C749.85 340.809 750.839 341.074 752.042 341.074ZM749.371 319.54L746.516 319.455C746.516 317.883 746.938 316.628 747.781 315.69C748.633 314.753 749.684 314.284 750.934 314.284C751.512 314.284 752.018 314.384 752.454 314.582C752.889 314.772 753.297 314.994 753.675 315.25C754.064 315.496 754.447 315.719 754.826 315.918C755.214 316.107 755.645 316.202 756.119 316.202C756.668 316.202 757.113 315.993 757.454 315.577C757.804 315.16 757.979 314.644 757.979 314.028L760.778 314.213C760.778 315.795 760.352 317.04 759.499 317.949C758.647 318.848 757.601 319.303 756.36 319.312C755.688 319.312 755.129 319.218 754.684 319.028C754.248 318.83 753.86 318.607 753.519 318.361C753.178 318.105 752.828 317.878 752.468 317.679C752.108 317.48 751.677 317.381 751.175 317.381C750.645 317.381 750.21 317.589 749.869 318.006C749.537 318.413 749.371 318.924 749.371 319.54ZM776.733 344.44C774.688 344.44 772.902 343.972 771.378 343.034C769.853 342.097 768.67 340.785 767.827 339.099C766.984 337.414 766.562 335.444 766.562 333.19C766.562 330.927 766.984 328.948 767.827 327.253C768.67 325.558 769.853 324.241 771.378 323.304C772.902 322.366 774.688 321.898 776.733 321.898C778.778 321.898 780.563 322.366 782.088 323.304C783.613 324.241 784.796 325.558 785.639 327.253C786.482 328.948 786.903 330.927 786.903 333.19C786.903 335.444 786.482 337.414 785.639 339.099C784.796 340.785 783.613 342.097 782.088 343.034C780.563 343.972 778.778 344.44 776.733 344.44ZM776.747 340.875C778.073 340.875 779.171 340.525 780.043 339.824C780.914 339.123 781.558 338.19 781.974 337.026C782.401 335.861 782.614 334.578 782.614 333.176C782.614 331.784 782.401 330.506 781.974 329.341C781.558 328.167 780.914 327.224 780.043 326.514C779.171 325.804 778.073 325.449 776.747 325.449C775.412 325.449 774.304 325.804 773.423 326.514C772.552 327.224 771.903 328.167 771.477 329.341C771.061 330.506 770.852 331.784 770.852 333.176C770.852 334.578 771.061 335.861 771.477 337.026C771.903 338.19 772.552 339.123 773.423 339.824C774.304 340.525 775.412 340.875 776.747 340.875ZM812.614 322.182V325.591H800.284V322.182H812.614ZM803.665 344V319.653C803.665 318.29 803.963 317.158 804.56 316.259C805.156 315.349 805.947 314.672 806.932 314.227C807.917 313.773 808.987 313.545 810.142 313.545C810.994 313.545 811.723 313.616 812.33 313.759C812.936 313.891 813.385 314.014 813.679 314.128L812.685 317.565C812.486 317.509 812.23 317.442 811.918 317.366C811.605 317.281 811.226 317.239 810.781 317.239C809.749 317.239 809.01 317.494 808.565 318.006C808.13 318.517 807.912 319.256 807.912 320.222V344H803.665ZM822.681 344.483C821.299 344.483 820.049 344.227 818.931 343.716C817.814 343.195 816.928 342.442 816.275 341.457C815.631 340.473 815.309 339.265 815.309 337.835C815.309 336.604 815.546 335.591 816.019 334.795C816.493 334 817.132 333.37 817.937 332.906C818.742 332.442 819.641 332.092 820.636 331.855C821.63 331.618 822.643 331.438 823.675 331.315C824.982 331.164 826.043 331.041 826.857 330.946C827.672 330.842 828.263 330.676 828.633 330.449C829.002 330.222 829.187 329.852 829.187 329.341V329.241C829.187 328.001 828.836 327.04 828.136 326.358C827.444 325.676 826.412 325.335 825.039 325.335C823.609 325.335 822.482 325.652 821.658 326.287C820.844 326.912 820.281 327.608 819.968 328.375L815.977 327.466C816.45 326.14 817.141 325.07 818.05 324.256C818.969 323.432 820.025 322.835 821.218 322.466C822.411 322.087 823.666 321.898 824.982 321.898C825.853 321.898 826.777 322.002 827.752 322.21C828.737 322.409 829.656 322.778 830.508 323.318C831.37 323.858 832.075 324.63 832.624 325.634C833.174 326.628 833.448 327.92 833.448 329.511V344H829.3V341.017H829.13C828.855 341.566 828.443 342.106 827.894 342.636C827.345 343.167 826.639 343.607 825.778 343.957C824.916 344.308 823.884 344.483 822.681 344.483ZM823.604 341.074C824.779 341.074 825.782 340.842 826.616 340.378C827.459 339.914 828.098 339.308 828.533 338.56C828.978 337.802 829.201 336.992 829.201 336.131V333.318C829.049 333.47 828.756 333.612 828.32 333.744C827.894 333.867 827.406 333.976 826.857 334.071C826.308 334.156 825.773 334.237 825.252 334.312C824.731 334.379 824.296 334.436 823.945 334.483C823.121 334.587 822.369 334.762 821.687 335.009C821.014 335.255 820.475 335.61 820.067 336.074C819.67 336.528 819.471 337.134 819.471 337.892C819.471 338.943 819.859 339.739 820.636 340.278C821.412 340.809 822.402 341.074 823.604 341.074ZM823.448 319.27L826.772 312.722H831.246L826.843 319.27H823.448ZM848.295 344.44C846.184 344.44 844.366 343.962 842.841 343.006C841.326 342.04 840.161 340.709 839.347 339.014C838.532 337.319 838.125 335.378 838.125 333.19C838.125 330.974 838.542 329.019 839.375 327.324C840.208 325.619 841.383 324.289 842.898 323.332C844.413 322.376 846.198 321.898 848.253 321.898C849.91 321.898 851.387 322.205 852.685 322.821C853.982 323.427 855.028 324.279 855.824 325.378C856.629 326.476 857.107 327.759 857.259 329.227H853.125C852.898 328.205 852.377 327.324 851.562 326.585C850.758 325.847 849.678 325.477 848.324 325.477C847.14 325.477 846.103 325.79 845.213 326.415C844.332 327.03 843.646 327.911 843.153 329.057C842.661 330.193 842.415 331.538 842.415 333.091C842.415 334.682 842.656 336.055 843.139 337.21C843.622 338.366 844.304 339.26 845.185 339.895C846.075 340.529 847.121 340.847 848.324 340.847C849.129 340.847 849.858 340.7 850.511 340.406C851.174 340.103 851.728 339.672 852.173 339.114C852.628 338.555 852.945 337.883 853.125 337.097H857.259C857.107 338.508 856.648 339.767 855.881 340.875C855.114 341.983 854.086 342.854 852.798 343.489C851.52 344.123 850.019 344.44 848.295 344.44ZM861.8 344V322.182H866.048V344H861.8ZM863.945 318.815C863.207 318.815 862.572 318.569 862.042 318.077C861.521 317.575 861.261 316.978 861.261 316.287C861.261 315.586 861.521 314.99 862.042 314.497C862.572 313.995 863.207 313.744 863.945 313.744C864.684 313.744 865.314 313.995 865.835 314.497C866.365 314.99 866.63 315.586 866.63 316.287C866.63 316.978 866.365 317.575 865.835 318.077C865.314 318.569 864.684 318.815 863.945 318.815ZM876.009 314.909V344H871.761V314.909H876.009Z" fill="#A1A1AA"/>
<rect x="468.5" y="405" width="155" height="56" rx="8" stroke="#F4F4F5" stroke-width="1.5"/>
<path d="M503.108 426.909L506.751 437.571H506.898L510.542 426.909H512.677L507.966 440H505.684L500.973 426.909H503.108ZM517.661 440.198C516.694 440.198 515.86 439.991 515.162 439.578C514.467 439.161 513.93 438.575 513.551 437.82C513.176 437.062 512.988 436.173 512.988 435.155C512.988 434.149 513.176 433.263 513.551 432.496C513.93 431.729 514.458 431.13 515.136 430.7C515.818 430.269 516.615 430.054 517.527 430.054C518.081 430.054 518.618 430.146 519.137 430.329C519.657 430.512 520.124 430.8 520.537 431.192C520.951 431.584 521.277 432.093 521.515 432.719C521.754 433.342 521.873 434.098 521.873 434.989V435.666H514.069V434.234H520C520 433.732 519.898 433.286 519.694 432.898C519.489 432.506 519.201 432.197 518.831 431.972C518.464 431.746 518.034 431.633 517.539 431.633C517.002 431.633 516.534 431.765 516.133 432.029C515.737 432.289 515.43 432.63 515.213 433.052C515 433.469 514.893 433.923 514.893 434.413V435.532C514.893 436.188 515.008 436.746 515.238 437.207C515.473 437.667 515.799 438.018 516.216 438.261C516.634 438.5 517.122 438.619 517.68 438.619C518.042 438.619 518.373 438.568 518.671 438.466C518.969 438.359 519.227 438.202 519.444 437.993C519.662 437.784 519.828 437.526 519.943 437.219L521.752 437.545C521.607 438.078 521.347 438.545 520.972 438.945C520.601 439.342 520.135 439.651 519.572 439.872C519.014 440.089 518.377 440.198 517.661 440.198ZM523.994 440V430.182H525.841V431.741H525.943C526.122 431.213 526.438 430.798 526.889 430.495C527.345 430.188 527.861 430.035 528.436 430.035C528.556 430.035 528.696 430.039 528.858 430.048C529.024 430.056 529.154 430.067 529.248 430.08V431.908C529.171 431.886 529.035 431.863 528.839 431.837C528.643 431.808 528.447 431.793 528.251 431.793C527.799 431.793 527.396 431.888 527.043 432.08C526.693 432.268 526.416 432.53 526.212 432.866C526.007 433.199 525.905 433.578 525.905 434.004V440H523.994ZM535.666 443.682V430.182H537.532V431.773H537.692C537.803 431.569 537.963 431.332 538.171 431.064C538.38 430.795 538.67 430.561 539.041 430.361C539.411 430.156 539.901 430.054 540.511 430.054C541.303 430.054 542.011 430.254 542.633 430.655C543.255 431.055 543.743 431.633 544.097 432.387C544.455 433.141 544.634 434.049 544.634 435.11C544.634 436.171 544.457 437.081 544.103 437.839C543.749 438.594 543.264 439.175 542.646 439.585C542.028 439.989 541.323 440.192 540.53 440.192C539.933 440.192 539.445 440.092 539.066 439.891C538.691 439.691 538.397 439.457 538.184 439.188C537.971 438.92 537.807 438.681 537.692 438.472H537.577V443.682H535.666ZM537.539 435.091C537.539 435.781 537.639 436.386 537.839 436.906C538.039 437.426 538.329 437.833 538.708 438.127C539.088 438.417 539.552 438.562 540.102 438.562C540.673 438.562 541.15 438.411 541.534 438.108C541.917 437.801 542.207 437.386 542.403 436.862C542.603 436.337 542.703 435.747 542.703 435.091C542.703 434.443 542.605 433.862 542.409 433.346C542.218 432.83 541.928 432.423 541.54 432.125C541.156 431.827 540.677 431.678 540.102 431.678C539.548 431.678 539.079 431.82 538.695 432.106C538.316 432.391 538.029 432.79 537.833 433.301C537.637 433.812 537.539 434.409 537.539 435.091ZM548.686 426.909V440H546.775V426.909H548.686ZM554.115 440.217C553.493 440.217 552.93 440.102 552.427 439.872C551.924 439.638 551.526 439.299 551.232 438.856C550.942 438.413 550.797 437.869 550.797 437.226C550.797 436.672 550.904 436.216 551.117 435.858C551.33 435.5 551.618 435.217 551.98 435.008C552.342 434.799 552.747 434.641 553.194 434.535C553.642 434.428 554.098 434.347 554.562 434.292C555.15 434.224 555.627 434.168 555.994 434.126C556.36 434.079 556.627 434.004 556.793 433.902C556.959 433.8 557.042 433.634 557.042 433.403V433.359C557.042 432.8 556.885 432.368 556.569 432.061C556.258 431.754 555.794 431.601 555.176 431.601C554.532 431.601 554.025 431.744 553.654 432.029C553.288 432.31 553.034 432.624 552.894 432.969L551.098 432.56C551.311 431.963 551.622 431.482 552.031 431.115C552.444 430.744 552.919 430.476 553.456 430.31C553.993 430.139 554.558 430.054 555.15 430.054C555.542 430.054 555.958 430.101 556.397 430.195C556.84 430.284 557.253 430.45 557.637 430.693C558.025 430.936 558.342 431.283 558.589 431.735C558.836 432.183 558.96 432.764 558.96 433.48V440H557.093V438.658H557.017C556.893 438.905 556.708 439.148 556.461 439.386C556.213 439.625 555.896 439.823 555.508 439.981C555.12 440.138 554.656 440.217 554.115 440.217ZM554.53 438.683C555.059 438.683 555.51 438.579 555.885 438.37C556.265 438.161 556.552 437.888 556.748 437.552C556.949 437.211 557.049 436.847 557.049 436.459V435.193C556.98 435.261 556.848 435.325 556.652 435.385C556.461 435.44 556.241 435.489 555.994 435.532C555.747 435.57 555.506 435.607 555.272 435.641C555.037 435.67 554.841 435.696 554.684 435.717C554.313 435.764 553.974 435.843 553.667 435.954C553.365 436.065 553.122 436.224 552.939 436.433C552.76 436.638 552.67 436.911 552.67 437.251C552.67 437.724 552.845 438.082 553.194 438.325C553.544 438.564 553.989 438.683 554.53 438.683ZM563.417 434.17V440H561.506V430.182H563.34V431.78H563.461C563.687 431.26 564.041 430.842 564.523 430.527C565.008 430.212 565.62 430.054 566.357 430.054C567.026 430.054 567.612 430.195 568.115 430.476C568.618 430.753 569.008 431.166 569.285 431.716C569.562 432.266 569.7 432.945 569.7 433.755V440H567.789V433.985C567.789 433.273 567.604 432.717 567.233 432.317C566.862 431.912 566.353 431.71 565.705 431.71C565.262 431.71 564.868 431.805 564.523 431.997C564.182 432.189 563.911 432.47 563.711 432.841C563.515 433.207 563.417 433.651 563.417 434.17ZM576.399 440.198C575.479 440.198 574.675 439.987 573.989 439.565C573.303 439.143 572.77 438.553 572.391 437.795C572.012 437.036 571.822 436.15 571.822 435.136C571.822 434.117 572.012 433.227 572.391 432.464C572.77 431.701 573.303 431.109 573.989 430.687C574.675 430.265 575.479 430.054 576.399 430.054C577.319 430.054 578.123 430.265 578.809 430.687C579.495 431.109 580.028 431.701 580.407 432.464C580.786 433.227 580.976 434.117 580.976 435.136C580.976 436.15 580.786 437.036 580.407 437.795C580.028 438.553 579.495 439.143 578.809 439.565C578.123 439.987 577.319 440.198 576.399 440.198ZM576.405 438.594C577.002 438.594 577.496 438.436 577.888 438.121C578.28 437.805 578.57 437.386 578.758 436.862C578.949 436.337 579.045 435.76 579.045 435.129C579.045 434.503 578.949 433.928 578.758 433.403C578.57 432.875 578.28 432.451 577.888 432.131C577.496 431.812 577.002 431.652 576.405 431.652C575.805 431.652 575.306 431.812 574.91 432.131C574.518 432.451 574.226 432.875 574.034 433.403C573.846 433.928 573.753 434.503 573.753 435.129C573.753 435.76 573.846 436.337 574.034 436.862C574.226 437.386 574.518 437.805 574.91 438.121C575.306 438.436 575.805 438.594 576.405 438.594ZM590.466 432.579L588.734 432.886C588.662 432.664 588.547 432.453 588.389 432.253C588.235 432.053 588.027 431.888 587.762 431.761C587.498 431.633 587.168 431.569 586.772 431.569C586.23 431.569 585.779 431.69 585.417 431.933C585.054 432.172 584.873 432.481 584.873 432.86C584.873 433.188 584.995 433.452 585.238 433.653C585.48 433.853 585.873 434.017 586.414 434.145L587.973 434.503C588.877 434.712 589.55 435.033 589.993 435.468C590.436 435.903 590.658 436.467 590.658 437.162C590.658 437.75 590.488 438.274 590.147 438.734C589.81 439.19 589.339 439.548 588.734 439.808C588.133 440.068 587.436 440.198 586.644 440.198C585.544 440.198 584.647 439.964 583.953 439.495C583.258 439.022 582.832 438.351 582.674 437.482L584.522 437.2C584.637 437.682 584.873 438.046 585.231 438.293C585.589 438.536 586.056 438.658 586.631 438.658C587.257 438.658 587.758 438.528 588.133 438.268C588.508 438.004 588.696 437.682 588.696 437.303C588.696 436.996 588.581 436.738 588.35 436.529C588.125 436.32 587.777 436.163 587.309 436.056L585.647 435.692C584.73 435.483 584.053 435.151 583.614 434.695C583.179 434.239 582.962 433.661 582.962 432.962C582.962 432.383 583.124 431.876 583.448 431.441C583.772 431.006 584.219 430.668 584.79 430.425C585.361 430.178 586.015 430.054 586.752 430.054C587.814 430.054 588.649 430.284 589.258 430.744C589.868 431.2 590.27 431.812 590.466 432.579Z" fill="#F4F4F5"/>
<rect x="639.5" y="405" width="172" height="56" rx="8" fill="#F4F4F5"/>
<path d="M673.14 440V426.909H677.934C678.863 426.909 679.633 427.062 680.242 427.369C680.851 427.672 681.307 428.083 681.61 428.603C681.912 429.119 682.064 429.7 682.064 430.348C682.064 430.893 681.964 431.354 681.763 431.729C681.563 432.099 681.294 432.398 680.958 432.624C680.625 432.845 680.259 433.007 679.858 433.109V433.237C680.293 433.259 680.717 433.399 681.13 433.659C681.548 433.915 681.893 434.279 682.166 434.752C682.439 435.225 682.575 435.8 682.575 436.478C682.575 437.147 682.417 437.748 682.102 438.281C681.791 438.809 681.309 439.229 680.657 439.54C680.005 439.847 679.172 440 678.158 440H673.14ZM675.116 438.306H677.966C678.912 438.306 679.59 438.123 679.999 437.756C680.408 437.39 680.613 436.932 680.613 436.382C680.613 435.969 680.508 435.589 680.299 435.244C680.091 434.899 679.792 434.624 679.405 434.42C679.021 434.215 678.565 434.113 678.037 434.113H675.116V438.306ZM675.116 432.572H677.762C678.205 432.572 678.603 432.487 678.957 432.317C679.315 432.146 679.598 431.908 679.807 431.601C680.02 431.29 680.127 430.923 680.127 430.501C680.127 429.96 679.937 429.506 679.558 429.14C679.179 428.773 678.597 428.59 677.813 428.59H675.116V432.572ZM687.622 440.217C686.999 440.217 686.437 440.102 685.934 439.872C685.431 439.638 685.033 439.299 684.739 438.856C684.449 438.413 684.304 437.869 684.304 437.226C684.304 436.672 684.411 436.216 684.624 435.858C684.837 435.5 685.124 435.217 685.487 435.008C685.849 434.799 686.254 434.641 686.701 434.535C687.149 434.428 687.604 434.347 688.069 434.292C688.657 434.224 689.134 434.168 689.501 434.126C689.867 434.079 690.134 434.004 690.3 433.902C690.466 433.8 690.549 433.634 690.549 433.403V433.359C690.549 432.8 690.391 432.368 690.076 432.061C689.765 431.754 689.301 431.601 688.683 431.601C688.039 431.601 687.532 431.744 687.161 432.029C686.795 432.31 686.541 432.624 686.401 432.969L684.604 432.56C684.818 431.963 685.129 431.482 685.538 431.115C685.951 430.744 686.426 430.476 686.963 430.31C687.5 430.139 688.065 430.054 688.657 430.054C689.049 430.054 689.465 430.101 689.903 430.195C690.347 430.284 690.76 430.45 691.144 430.693C691.531 430.936 691.849 431.283 692.096 431.735C692.343 432.183 692.467 432.764 692.467 433.48V440H690.6V438.658H690.524C690.4 438.905 690.215 439.148 689.967 439.386C689.72 439.625 689.403 439.823 689.015 439.981C688.627 440.138 688.163 440.217 687.622 440.217ZM688.037 438.683C688.565 438.683 689.017 438.579 689.392 438.37C689.771 438.161 690.059 437.888 690.255 437.552C690.455 437.211 690.555 436.847 690.555 436.459V435.193C690.487 435.261 690.355 435.325 690.159 435.385C689.967 435.44 689.748 435.489 689.501 435.532C689.254 435.57 689.013 435.607 688.778 435.641C688.544 435.67 688.348 435.696 688.19 435.717C687.82 435.764 687.481 435.843 687.174 435.954C686.872 436.065 686.629 436.224 686.445 436.433C686.266 436.638 686.177 436.911 686.177 437.251C686.177 437.724 686.352 438.082 686.701 438.325C687.051 438.564 687.496 438.683 688.037 438.683ZM695.012 440V430.182H696.924V440H695.012ZM695.978 428.667C695.645 428.667 695.36 428.556 695.121 428.335C694.887 428.109 694.769 427.84 694.769 427.529C694.769 427.214 694.887 426.945 695.121 426.724C695.36 426.498 695.645 426.385 695.978 426.385C696.31 426.385 696.593 426.498 696.828 426.724C697.066 426.945 697.186 427.214 697.186 427.529C697.186 427.84 697.066 428.109 696.828 428.335C696.593 428.556 696.31 428.667 695.978 428.667ZM701.003 430.182L703.17 434.004L705.356 430.182H707.446L704.385 435.091L707.472 440H705.382L703.17 436.331L700.965 440H698.868L701.924 435.091L698.907 430.182H701.003ZM712.248 440.217C711.626 440.217 711.064 440.102 710.561 439.872C710.058 439.638 709.66 439.299 709.366 438.856C709.076 438.413 708.931 437.869 708.931 437.226C708.931 436.672 709.038 436.216 709.251 435.858C709.464 435.5 709.751 435.217 710.114 435.008C710.476 434.799 710.881 434.641 711.328 434.535C711.775 434.428 712.231 434.347 712.696 434.292C713.284 434.224 713.761 434.168 714.128 434.126C714.494 434.079 714.761 434.004 714.927 433.902C715.093 433.8 715.176 433.634 715.176 433.403V433.359C715.176 432.8 715.018 432.368 714.703 432.061C714.392 431.754 713.927 431.601 713.31 431.601C712.666 431.601 712.159 431.744 711.788 432.029C711.422 432.31 711.168 432.624 711.028 432.969L709.231 432.56C709.445 431.963 709.756 431.482 710.165 431.115C710.578 430.744 711.053 430.476 711.59 430.31C712.127 430.139 712.692 430.054 713.284 430.054C713.676 430.054 714.092 430.101 714.53 430.195C714.974 430.284 715.387 430.45 715.771 430.693C716.158 430.936 716.476 431.283 716.723 431.735C716.97 432.183 717.094 432.764 717.094 433.48V440H715.227V438.658H715.15C715.027 438.905 714.842 439.148 714.594 439.386C714.347 439.625 714.03 439.823 713.642 439.981C713.254 440.138 712.79 440.217 712.248 440.217ZM712.664 438.683C713.192 438.683 713.644 438.579 714.019 438.37C714.398 438.161 714.686 437.888 714.882 437.552C715.082 437.211 715.182 436.847 715.182 436.459V435.193C715.114 435.261 714.982 435.325 714.786 435.385C714.594 435.44 714.375 435.489 714.128 435.532C713.881 435.57 713.64 435.607 713.405 435.641C713.171 435.67 712.975 435.696 712.817 435.717C712.447 435.764 712.108 435.843 711.801 435.954C711.498 436.065 711.256 436.224 711.072 436.433C710.893 436.638 710.804 436.911 710.804 437.251C710.804 437.724 710.979 438.082 711.328 438.325C711.677 438.564 712.123 438.683 712.664 438.683ZM719.639 440V430.182H721.487V431.741H721.589C721.768 431.213 722.083 430.798 722.535 430.495C722.991 430.188 723.506 430.035 724.082 430.035C724.201 430.035 724.342 430.039 724.504 430.048C724.67 430.056 724.8 430.067 724.894 430.08V431.908C724.817 431.886 724.68 431.863 724.484 431.837C724.288 431.808 724.092 431.793 723.896 431.793C723.445 431.793 723.042 431.888 722.688 432.08C722.339 432.268 722.062 432.53 721.857 432.866C721.653 433.199 721.551 433.578 721.551 434.004V440H719.639ZM734.168 440.217C733.546 440.217 732.984 440.102 732.481 439.872C731.978 439.638 731.58 439.299 731.286 438.856C730.996 438.413 730.851 437.869 730.851 437.226C730.851 436.672 730.957 436.216 731.171 435.858C731.384 435.5 731.671 435.217 732.033 435.008C732.396 434.799 732.801 434.641 733.248 434.535C733.695 434.428 734.151 434.347 734.616 434.292C735.204 434.224 735.681 434.168 736.048 434.126C736.414 434.079 736.68 434.004 736.847 433.902C737.013 433.8 737.096 433.634 737.096 433.403V433.359C737.096 432.8 736.938 432.368 736.623 432.061C736.312 431.754 735.847 431.601 735.229 431.601C734.586 431.601 734.079 431.744 733.708 432.029C733.342 432.31 733.088 432.624 732.948 432.969L731.151 432.56C731.364 431.963 731.676 431.482 732.085 431.115C732.498 430.744 732.973 430.476 733.51 430.31C734.047 430.139 734.612 430.054 735.204 430.054C735.596 430.054 736.011 430.101 736.45 430.195C736.894 430.284 737.307 430.45 737.69 430.693C738.078 430.936 738.396 431.283 738.643 431.735C738.89 432.183 739.014 432.764 739.014 433.48V440H737.147V438.658H737.07C736.947 438.905 736.761 439.148 736.514 439.386C736.267 439.625 735.95 439.823 735.562 439.981C735.174 440.138 734.71 440.217 734.168 440.217ZM734.584 438.683C735.112 438.683 735.564 438.579 735.939 438.37C736.318 438.161 736.606 437.888 736.802 437.552C737.002 437.211 737.102 436.847 737.102 436.459V435.193C737.034 435.261 736.902 435.325 736.706 435.385C736.514 435.44 736.295 435.489 736.048 435.532C735.801 435.57 735.56 435.607 735.325 435.641C735.091 435.67 734.895 435.696 734.737 435.717C734.367 435.764 734.028 435.843 733.721 435.954C733.418 436.065 733.176 436.224 732.992 436.433C732.813 436.638 732.724 436.911 732.724 437.251C732.724 437.724 732.899 438.082 733.248 438.325C733.597 438.564 734.043 438.683 734.584 438.683ZM745.676 443.886C744.896 443.886 744.225 443.784 743.662 443.58C743.104 443.375 742.648 443.104 742.294 442.768C741.941 442.431 741.676 442.063 741.502 441.662L743.144 440.984C743.259 441.172 743.413 441.37 743.605 441.579C743.801 441.792 744.065 441.973 744.397 442.122C744.734 442.271 745.166 442.346 745.695 442.346C746.419 442.346 747.018 442.169 747.491 441.815C747.964 441.466 748.201 440.908 748.201 440.141V438.21H748.079C747.964 438.419 747.798 438.651 747.581 438.907C747.367 439.163 747.073 439.384 746.698 439.572C746.323 439.759 745.835 439.853 745.235 439.853C744.459 439.853 743.76 439.672 743.138 439.31C742.52 438.943 742.03 438.404 741.668 437.692C741.31 436.977 741.131 436.097 741.131 435.053C741.131 434.009 741.308 433.114 741.661 432.368C742.019 431.622 742.509 431.051 743.132 430.655C743.754 430.254 744.459 430.054 745.247 430.054C745.857 430.054 746.349 430.156 746.724 430.361C747.099 430.561 747.391 430.795 747.6 431.064C747.813 431.332 747.977 431.569 748.092 431.773H748.233V430.182H750.105V440.217C750.105 441.061 749.909 441.754 749.517 442.295C749.125 442.836 748.595 443.237 747.926 443.496C747.261 443.756 746.511 443.886 745.676 443.886ZM745.657 438.268C746.206 438.268 746.671 438.14 747.05 437.884C747.434 437.624 747.723 437.254 747.919 436.772C748.12 436.286 748.22 435.705 748.22 435.027C748.22 434.366 748.122 433.785 747.926 433.282C747.73 432.779 747.442 432.387 747.063 432.106C746.684 431.82 746.215 431.678 745.657 431.678C745.081 431.678 744.602 431.827 744.218 432.125C743.835 432.419 743.545 432.82 743.349 433.327C743.157 433.834 743.061 434.401 743.061 435.027C743.061 435.67 743.159 436.235 743.355 436.721C743.551 437.207 743.841 437.586 744.225 437.859C744.612 438.131 745.09 438.268 745.657 438.268ZM756.804 440.198C755.884 440.198 755.081 439.987 754.394 439.565C753.708 439.143 753.176 438.553 752.796 437.795C752.417 437.036 752.228 436.15 752.228 435.136C752.228 434.117 752.417 433.227 752.796 432.464C753.176 431.701 753.708 431.109 754.394 430.687C755.081 430.265 755.884 430.054 756.804 430.054C757.725 430.054 758.528 430.265 759.214 430.687C759.9 431.109 760.433 431.701 760.812 432.464C761.191 433.227 761.381 434.117 761.381 435.136C761.381 436.15 761.191 437.036 760.812 437.795C760.433 438.553 759.9 439.143 759.214 439.565C758.528 439.987 757.725 440.198 756.804 440.198ZM756.811 438.594C757.407 438.594 757.902 438.436 758.294 438.121C758.686 437.805 758.975 437.386 759.163 436.862C759.355 436.337 759.451 435.76 759.451 435.129C759.451 434.503 759.355 433.928 759.163 433.403C758.975 432.875 758.686 432.451 758.294 432.131C757.902 431.812 757.407 431.652 756.811 431.652C756.21 431.652 755.711 431.812 755.315 432.131C754.923 432.451 754.631 432.875 754.439 433.403C754.252 433.928 754.158 434.503 754.158 435.129C754.158 435.76 754.252 436.337 754.439 436.862C754.631 437.386 754.923 437.805 755.315 438.121C755.711 438.436 756.21 438.594 756.811 438.594ZM763.514 440V430.182H765.362V431.741H765.464C765.643 431.213 765.958 430.798 766.41 430.495C766.866 430.188 767.381 430.035 767.957 430.035C768.076 430.035 768.217 430.039 768.379 430.048C768.545 430.056 768.675 430.067 768.769 430.08V431.908C768.692 431.886 768.555 431.863 768.359 431.837C768.163 431.808 767.967 431.793 767.771 431.793C767.32 431.793 766.917 431.888 766.563 432.08C766.214 432.268 765.937 432.53 765.732 432.866C765.528 433.199 765.426 433.578 765.426 434.004V440H763.514ZM773.192 440.217C772.57 440.217 772.007 440.102 771.504 439.872C771.002 439.638 770.603 439.299 770.309 438.856C770.019 438.413 769.874 437.869 769.874 437.226C769.874 436.672 769.981 436.216 770.194 435.858C770.407 435.5 770.695 435.217 771.057 435.008C771.419 434.799 771.824 434.641 772.271 434.535C772.719 434.428 773.175 434.347 773.639 434.292C774.227 434.224 774.705 434.168 775.071 434.126C775.438 434.079 775.704 434.004 775.87 433.902C776.036 433.8 776.119 433.634 776.119 433.403V433.359C776.119 432.8 775.962 432.368 775.646 432.061C775.335 431.754 774.871 431.601 774.253 431.601C773.609 431.601 773.102 431.744 772.732 432.029C772.365 432.31 772.112 432.624 771.971 432.969L770.175 432.56C770.388 431.963 770.699 431.482 771.108 431.115C771.521 430.744 771.997 430.476 772.533 430.31C773.07 430.139 773.635 430.054 774.227 430.054C774.619 430.054 775.035 430.101 775.474 430.195C775.917 430.284 776.33 430.45 776.714 430.693C777.102 430.936 777.419 431.283 777.666 431.735C777.913 432.183 778.037 432.764 778.037 433.48V440H776.171V438.658H776.094C775.97 438.905 775.785 439.148 775.538 439.386C775.291 439.625 774.973 439.823 774.585 439.981C774.198 440.138 773.733 440.217 773.192 440.217ZM773.607 438.683C774.136 438.683 774.587 438.579 774.962 438.37C775.342 438.161 775.629 437.888 775.825 437.552C776.026 437.211 776.126 436.847 776.126 436.459V435.193C776.058 435.261 775.926 435.325 775.729 435.385C775.538 435.44 775.318 435.489 775.071 435.532C774.824 435.57 774.583 435.607 774.349 435.641C774.114 435.67 773.918 435.696 773.761 435.717C773.39 435.764 773.051 435.843 772.744 435.954C772.442 436.065 772.199 436.224 772.016 436.433C771.837 436.638 771.747 436.911 771.747 437.251C771.747 437.724 771.922 438.082 772.271 438.325C772.621 438.564 773.066 438.683 773.607 438.683Z" fill="#09090B"/>
</g>
<defs>
<filter id="filter0_f_2102_373" x="201.12" y="331.488" width="1478.88" height="1478.88" filterUnits="userSpaceOnUse" color-interpolation-filters="sRGB">
<feFlood flood-opacity="0" result="BackgroundImageFix"/>
<feBlend mode="normal" in="SourceGraphic" in2="BackgroundImageFix" result="shape"/>
<feGaussianBlur stdDeviation="120" result="effect1_foregroundBlur_2102_373"/>
</filter>
<filter id="filter1_f_2102_373" x="-240" y="320" width="1478.88" height="1478.88" filterUnits="userSpaceOnUse" color-interpolation-filters="sRGB">
<feFlood flood-opacity="0" result="BackgroundImageFix"/>
<feBlend mode="normal" in="SourceGraphic" in2="BackgroundImageFix" result="shape"/>
<feGaussianBlur stdDeviation="120" result="effect1_foregroundBlur_2102_373"/>
</filter>
<linearGradient id="paint0_linear_2102_373" x1="434" y1="132" x2="846" y2="132" gradientUnits="userSpaceOnUse">
<stop stop-color="#FC4A1A"/>
<stop offset="1" stop-color="#F7B733"/>
</linearGradient>
<clipPath id="clip0_2102_373">
<rect width="1280" height="700" fill="white"/>
</clipPath>
</defs>
</svg>
